HIERARCHY
ROOT hip
{
  OFFSET 0 0 0
  CHANNELS 6 Xposition Yposition Zposition Zrotation Yrotation Xrotation
  JOINT abdomen
  {
    OFFSET 0 20.6881 -0.73152
    CHANNELS 3 Zrotation Xrotation Yrotation
    JOINT chest
    {
      OFFSET 0 11.7043 -0.48768
      CHANNELS 3 Zrotation Xrotation Yrotation
      JOINT neck
      {
        OFFSET 0 22.1894 -2.19456
        CHANNELS 3 Zrotation Xrotation Yrotation
        JOINT head
        {
          OFFSET -0.24384 7.07133 1.2192
          CHANNELS 3 Zrotation Xrotation Yrotation
          JOINT leftEye
          {
            OFFSET 4.14528 8.04674 8.04672
            CHANNELS 3 Zrotation Xrotation Yrotation
            End Site
            {
              OFFSET 1 0 0
            }
          }
          JOINT rightEye
          {
            OFFSET -3.6576 8.04674 8.04672
            CHANNELS 3 Zrotation Xrotation Yrotation
            End Site
            {
              OFFSET 1 0 0
            }
          }
        }
      }
      JOINT rCollar
      {
        OFFSET -2.68224 19.2634 -4.8768
        CHANNELS 3 Zrotation Xrotation Yrotation
        JOINT rShldr
        {
          OFFSET -8.77824 -1.95073 1.46304
          CHANNELS 3 Zrotation Xrotation Yrotation
          JOINT rForeArm
          {
            OFFSET -28.1742 -1.7115 0.48768
            CHANNELS 3 Zrotation Xrotation Yrotation
            JOINT rHand
            {
              OFFSET -22.5879 0.773209 7.07136
              CHANNELS 3 Zrotation Xrotation Yrotation
              JOINT rThumb1
              {
                OFFSET -1.2192 -0.487915 3.41376
                CHANNELS 3 Zrotation Xrotation Yrotation
                JOINT rThumb2
                {
                  OFFSET -3.37035 -0.52449 3.41376
                  CHANNELS 3 Zrotation Xrotation Yrotation
                  End Site
                  {
                    OFFSET -1.78271 -1.18214 1.43049
                  }
                }
              }
              JOINT rIndex1
              {
                OFFSET -7.75947 0.938293 5.60832
                CHANNELS 3 Zrotation Xrotation Yrotation
                JOINT rIndex2
                {
                  OFFSET -2.54057 -0.884171 1.56538
                  CHANNELS 3 Zrotation Xrotation Yrotation
                  End Site
                  {
                    OFFSET -1.62519 -0.234802 1.16502
                  }
                }
              }
              JOINT rMid1
              {
                OFFSET -8.24714 1.18213 3.41376
                CHANNELS 3 Zrotation Xrotation Yrotation
                JOINT rMid2
                {
                  OFFSET -3.10165 -0.590103 1.0647
                  CHANNELS 3 Zrotation Xrotation Yrotation
                  End Site
                  {
                    OFFSET -2.48547 -0.328903 0.83742
                  }
                }
              }
              JOINT rRing1
              {
                OFFSET -8.82822 0.546677 1.51678
                CHANNELS 3 Zrotation Xrotation Yrotation
                JOINT rRing2
                {
                  OFFSET -2.60934 -0.819778 -0.0198488
                  CHANNELS 3 Zrotation Xrotation Yrotation
                  End Site
                  {
                    OFFSET -2.33842 -0.294052 0.168128
                  }
                }
              }
              JOINT rPinky1
              {
                OFFSET -8.27202 -0.0477905 -0.4584
                CHANNELS 3 Zrotation Xrotation Yrotation
                JOINT rPinky2
                {
                  OFFSET -1.82734 -0.647385 -0.700984
                  CHANNELS 3 Zrotation Xrotation Yrotation
                  End Site
                  {
                    OFFSET -1.69225 -0.51767 -0.607171
                  }
                }
              }
            }
          }
        }
      }
      JOINT lCollar
      {
        OFFSET 2.68224 19.2634 -4.8768
        CHANNELS 3 Zrotation Xrotation Yrotation
        JOINT lShldr
        {
          OFFSET 8.77824 -1.95073 1.46304
          CHANNELS 3 Zrotation Xrotation Yrotation
          JOINT lForeArm
          {
            OFFSET 28.1742 -1.7115 0.48768
            CHANNELS 3 Zrotation Xrotation Yrotation
            JOINT lHand
            {
              OFFSET 22.5879 0.773209 7.07136
              CHANNELS 3 Zrotation Xrotation Yrotation
              JOINT lThumb1
              {
                OFFSET 1.2192 -0.487915 3.41376
                CHANNELS 3 Zrotation Xrotation Yrotation
                JOINT lThumb2
                {
                  OFFSET 3.37035 -0.52449 3.41376
                  CHANNELS 3 Zrotation Xrotation Yrotation
                  End Site
                  {
                    OFFSET 1.78271 -1.18214 1.43049
                  }
                }
              }
              JOINT lIndex1
              {
                OFFSET 7.75947 0.938293 5.60832
                CHANNELS 3 Zrotation Xrotation Yrotation
                JOINT lIndex2
                {
                  OFFSET 2.54057 -0.884171 1.56538
                  CHANNELS 3 Zrotation Xrotation Yrotation
                  End Site
                  {
                    OFFSET 1.62519 -0.234802 1.16502
                  }
                }
              }
              JOINT lMid1
              {
                OFFSET 8.24714 1.18213 3.41376
                CHANNELS 3 Zrotation Xrotation Yrotation
                JOINT lMid2
                {
                  OFFSET 3.10165 -0.590103 1.0647
                  CHANNELS 3 Zrotation Xrotation Yrotation
                  End Site
                  {
                    OFFSET 2.48547 -0.328903 0.83742
                  }
                }
              }
              JOINT lRing1
              {
                OFFSET 8.82822 0.546677 1.51678
                CHANNELS 3 Zrotation Xrotation Yrotation
                JOINT lRing2
                {
                  OFFSET 2.60934 -0.819778 -0.0198488
                  CHANNELS 3 Zrotation Xrotation Yrotation
                  End Site
                  {
                    OFFSET 2.33842 -0.294052 0.168128
                  }
                }
              }
              JOINT lPinky1
              {
                OFFSET 8.27202 -0.0477905 -0.4584
                CHANNELS 3 Zrotation Xrotation Yrotation
                JOINT lPinky2
                {
                  OFFSET 1.82734 -0.647385 -0.700984
                  CHANNELS 3 Zrotation Xrotation Yrotation
                  End Site
                  {
                    OFFSET 1.69225 -0.51767 -0.607171
                  }
                }
              }
            }
          }
        }
      }
    }
  }
  JOINT rButtock
  {
    OFFSET -8.77824 4.35084 1.2192
    CHANNELS 3 Zrotation Xrotation Yrotation
    JOINT rThigh
    {
      OFFSET 0 -1.70687 -2.19456
      CHANNELS 3 Zrotation Xrotation Yrotation
      JOINT rShin
      {
        OFFSET 0 -36.8199 0.73152
        CHANNELS 3 Zrotation Xrotation Yrotation
        JOINT rFoot
        {
          OFFSET 0.73152 -45.1104 -5.12064
          CHANNELS 3 Zrotation Xrotation Yrotation
          End Site
          {
            OFFSET -1.1221 -3.69964 12.103
          }
        }
      }
    }
  }
  JOINT lButtock
  {
    OFFSET 8.77824 4.35084 1.2192
    CHANNELS 3 Zrotation Xrotation Yrotation
    JOINT lThigh
    {
      OFFSET 0 -1.70687 -2.19456
      CHANNELS 3 Zrotation Xrotation Yrotation
      JOINT lShin
      {
        OFFSET 0 -36.8199 0.73152
        CHANNELS 3 Zrotation Xrotation Yrotation
        JOINT lFoot
        {
          OFFSET -0.73152 -45.1104 -5.12064
          CHANNELS 3 Zrotation Xrotation Yrotation
          End Site
          {
            OFFSET 1.1221 -3.69964 12.103
          }
        }
      }
    }
  }
}
MOTION
Frames:	8
Frame Time:	0.00833333
7.48437 84.1002 -38.9671 0.0 0.0 0.0 -1.51927 -0.0028294 -0.0413937 -0.418701 0.00102624 -0.0725117 -5.29649e-15 0.0 2.48481e-17 -1.60301e-14 3.18055e-15 4.96962e-17 -0.0 0.0 0.0 -0.0 0.0 0.0 -2.78444e-15 -5.82377e-18 9.93923e-17 -5.56955e-14 -5.46658e-16 7.95139e-16 -9.69075e-13 2.87641e-13 0.0 -1.11559e-11 -3.15869e-13 -5.08889e-14 -2.63051e-11 -5.46674e-14 -1.01778e-13 -4.54402e-11 -9.85972e-14 -1.92424e-13 -2.6302e-11 -5.60573e-14 -1.11319e-13 7.73091 5.47488 0.417314 -2.63055e-11 -5.4964e-14 -9.85972e-14 2.90554 0.965183 0.102902 -2.63013e-11 -5.4964e-14 -1.05753e-13 10.2786 0.731801 0.0259123 -2.63131e-11 -5.32743e-14 -9.22361e-14 2.22167 -0.733487 -0.20892 -2.8811e-15 -7.37677e-18 -1.98785e-16 -5.84319e-14 -4.34841e-17 -1.39149e-15 -9.78021e-13 -2.944e-13 2.22639e-14 -1.11353e-11 2.72534e-13 -6.36111e-14 -2.62787e-11 -4.47045e-14 -9.85972e-14 -4.53798e-11 -7.31528e-14 -1.69365e-13 -2.62845e-11 -4.25399e-14 -8.90555e-14 -7.73091 5.47488 -0.417314 -2.62789e-11 -4.42296e-14 -9.85972e-14 -2.90554 0.965183 -0.102902 -2.62813e-11 -4.4329e-14 -1.00187e-13 -10.2786 0.731801 -0.0259123 -2.62702e-11 -4.21423e-14 -1.08139e-13 -2.22167 -0.733487 0.20892 -2.03217e-16 0.0 -3.88251e-19 -0.640507 -1.92323 -0.00643684 -0.00925489 -2.07856 -0.07643 -0.512186 3.99733 0.140317 2.03217e-16 0.0 3.88251e-19 -1.66971 -6.49783 0.154695 -0.0023108 6.20801 -0.0679851 0.534013 0.285485 -0.0665642
5.18326 82.119 -41.2838 -7.7013 -6.6009 8.9635 -0.0963975 -1.30979 0.237817 1.08878 0.941476 -0.0501086 -0.129566 -1.12452 -0.205041 -2.07177 6.41787 0.0245908 -0.0 0.0 0.0 -0.0 0.0 0.0 2.35241e-14 -1.53476e-14 8.82612e-15 21.0508 8.0538 2.07847 -4.21083 -1.91147 6.57889 0.0186668 -3.03162 -0.423914 -5.55456e-10 5.33214e-10 5.38537e-12 -9.59787e-10 9.22399e-10 5.01652e-12 -5.55454e-10 5.33216e-10 5.37096e-12 7.73091 5.47488 0.417314 -5.55457e-10 5.33215e-10 5.38761e-12 2.90554 0.965183 0.102902 -5.55452e-10 5.33215e-10 5.38167e-12 10.2786 0.731801 0.0259123 -5.55464e-10 5.33217e-10 5.39579e-12 2.22167 -0.733487 -0.20892 2.34147e-14 -1.53498e-14 8.58346e-15 -22.2721 9.24424 -2.69274 3.52733 -1.48592 -5.6297 -6.13441e-05 -0.206179 0.0289764 -6.09752e-10 -7.05584e-10 -3.04231e-10 -1.05492e-09 -1.22007e-09 -5.25322e-10 -6.09761e-10 -7.05586e-10 -3.04224e-10 -7.73091 5.47488 -0.417314 -6.09753e-10 -7.05586e-10 -3.0423e-10 -2.90554 0.965183 -0.102902 -6.09755e-10 -7.05587e-10 -3.04231e-10 -10.2786 0.731801 -0.0259123 -6.09744e-10 -7.05584e-10 -3.04238e-10 -2.22167 -0.733487 0.20892 -2.03217e-16 0.0 -3.88251e-19 0.512211 -7.18988 0.784632 0.00459193 6.71651 0.0676372 -0.64282 -0.411094 -1.5204 2.03217e-16 0.0 3.88251e-19 0.728448 -12.5089 0.9422 -0.00440162 15.6188 -0.217843 0.767727 -3.9873 1.8911
5.15132 82.1182 -41.2998 -7.7366 -6.5434 9.0388 1.41911 -2.69626 0.528281 2.68662 1.93968 -0.0282359 -0.286802 -2.31695 -0.430139 -4.25838 13.1838 0.0362463 -0.0 0.0 0.0 -0.0 0.0 0.0 5.65101e-14 -3.27018e-14 1.82105e-14 42.6409 16.5324 4.41783 -8.18799 -3.84787 13.5565 -0.0106568 -6.24004 -0.876594 -1.19247e-09 1.15986e-09 5.38548e-12 -2.06044e-09 2.00627e-09 -1.02873e-13 -1.19247e-09 1.15987e-09 5.3656e-12 7.73091 5.47488 0.417314 -1.19247e-09 1.15987e-09 5.38667e-12 2.90554 0.965183 0.102902 -1.19247e-09 1.15986e-09 5.38195e-12 10.2786 0.731801 0.0259123 -1.19248e-09 1.15987e-09 5.39681e-12 2.22167 -0.733487 -0.20892 5.63847e-14 -3.2705e-14 1.80273e-14 -44.8324 18.9339 -5.77895 6.93319 -3.00431 -11.5818 0.000114494 -0.411339 0.0578111 -1.30206e-09 -1.54856e-09 -6.71389e-10 -2.2527e-09 -2.67769e-09 -1.15935e-09 -1.30207e-09 -1.54856e-09 -6.71385e-10 -7.73091 5.47488 -0.417314 -1.30206e-09 -1.54856e-09 -6.71387e-10 -2.90554 0.965183 -0.102902 -1.30206e-09 -1.54856e-09 -6.71388e-10 -10.2786 0.731801 -0.0259123 -1.30205e-09 -1.54856e-09 -6.71395e-10 -2.22167 -0.733487 0.20892 -2.03217e-16 0.0 -3.88251e-19 1.89085 -12.7579 1.65531 -0.0302623 16.0143 0.227773 -1.05886 -5.06202 -3.28577 2.03217e-16 0.0 3.88251e-19 3.45007 -18.8593 1.82594 0.0527894 25.5676 -0.399315 1.33718 -8.48681 4.00451
5.108 82.1147 -41.3355 -7.8031 -6.4899 9.123 2.78763 -3.92338 0.797924 4.10154 2.82238 -0.00528852 -0.412879 -3.37338 -0.616072 -6.23267 19.2536 0.0776533 -0.0 0.0 0.0 -0.0 0.0 0.0 7.61412e-14 -4.60311e-14 2.62796e-14 61.2622 24.028 6.76225 -11.3396 -5.43261 19.8184 -0.0800257 -9.09284 -1.28613 -1.61376e-09 1.59975e-09 1.63597e-11 -2.78848e-09 2.76739e-09 1.54344e-11 -1.61376e-09 1.59976e-09 1.63355e-11 7.73091 5.47488 0.417314 -1.61376e-09 1.59976e-09 1.636e-11 2.90554 0.965183 0.102902 -1.61375e-09 1.59976e-09 1.63565e-11 10.2786 0.731801 0.0259123 -1.61377e-09 1.59976e-09 1.63718e-11 2.22167 -0.733487 -0.20892 7.60063e-14 -4.60347e-14 2.61479e-14 -63.9386 27.4717 -8.99447 9.71802 -4.28592 -16.9322 0.00044163 -0.618537 0.0869338 -1.7767e-09 -2.11666e-09 -9.12495e-10 -3.07401e-09 -3.66008e-09 -1.57563e-09 -1.77671e-09 -2.11667e-09 -9.12494e-10 -7.73091 5.47488 -0.417314 -1.7767e-09 -2.11667e-09 -9.12492e-10 -2.90554 0.965183 -0.102902 -1.7767e-09 -2.11667e-09 -9.12492e-10 -10.2786 0.731801 -0.0259123 -1.77669e-09 -2.11667e-09 -9.12499e-10 -2.22167 -0.733487 0.20892 -2.03217e-16 0.0 -3.88251e-19 3.2729 -17.7098 2.46515 -0.109538 24.3062 0.388737 -1.67647 -9.1952 -4.9042 2.03217e-16 0.0 3.88251e-19 6.06636 -24.512 2.69515 0.169075 34.4392 -0.599261 2.12716 -12.4743 5.93324
5.06904 82.1223 -41.3443 -7.804 -6.356 9.1076 3.76253 -4.75245 1.01394 5.06047 3.41632 0.0203307 -0.442349 -4.08999 -0.703091 -7.6819 23.5827 0.195574 -0.0 0.0 0.0 -0.0 0.0 0.0 6.23849e-14 -4.92976e-14 3.10601e-14 73.8438 29.1928 8.61998 -13.3288 -6.42541 24.2132 -0.152376 -11.0585 -1.57396 -1.49572e-09 1.57275e-09 5.47692e-11 -2.58501e-09 2.72167e-09 8.26133e-11 -1.49572e-09 1.57275e-09 5.47437e-11 7.73091 5.47488 0.417314 -1.49572e-09 1.57275e-09 5.47692e-11 2.90554 0.965183 0.102902 -1.49572e-09 1.57275e-09 5.47668e-11 10.2786 0.731801 0.0259123 -1.49573e-09 1.57275e-09 5.47819e-11 2.22167 -0.733487 -0.20892 6.22572e-14 -4.93009e-14 3.09607e-14 -76.5126 33.3736 -11.6785 11.5477 -5.13641 -20.7378 0.000846658 -0.830834 0.116774 -1.70718e-09 -1.9976e-09 -8.38471e-10 -2.95414e-09 -3.45438e-09 -1.44753e-09 -1.7072e-09 -1.99761e-09 -8.38471e-10 -7.73091 5.47488 -0.417314 -1.70718e-09 -1.99761e-09 -8.38467e-10 -2.90554 0.965183 -0.102902 -1.70718e-09 -1.99761e-09 -8.38467e-10 -10.2786 0.731801 -0.0259123 -1.70717e-09 -1.9976e-09 -8.38474e-10 -2.22167 -0.733487 0.20892 -2.03217e-16 0.0 -3.88251e-19 4.32905 -21.1345 3.03071 -0.196936 30.0837 0.518416 -2.25346 -12.0677 -6.08283 2.03217e-16 0.0 3.88251e-19 8.02491 -28.4374 3.37426 0.299071 40.6183 -0.773635 2.82673 -15.2393 7.27707
5.03011 82.1315 -41.3418 -7.7782 -6.1719 9.0373 4.17537 -5.018 1.15354 5.37342 3.60186 0.05007 -0.314731 -4.33194 -0.647321 -8.40263 25.4887 0.425813 -0.0 0.0 0.0 -0.0 0.0 0.0 -1.26128e-14 -4.10671e-14 3.06194e-14 78.7193 31.1889 9.39615 -14.0685 -6.78785 25.9511 -0.184876 -11.7866 -1.68207 -4.04024e-10 6.72978e-10 1.80348e-10 -6.99974e-10 1.16791e-09 3.07988e-10 -4.04024e-10 6.72986e-10 1.80326e-10 7.73091 5.47488 0.417314 -4.04026e-10 6.72983e-10 1.80348e-10 2.90554 0.965183 0.102902 -4.04021e-10 6.72982e-10 1.80347e-10 10.2786 0.731801 0.0259123 -4.04033e-10 6.72983e-10 1.80361e-10 2.22167 -0.733487 -0.20892 -1.27013e-14 -4.10684e-14 3.05274e-14 -81.107 35.8096 -12.9155 12.2996 -5.49806 -22.3655 0.00133889 -1.07206 0.150683 -6.54703e-10 -6.70823e-10 -2.32635e-10 -1.13433e-09 -1.16072e-09 -4.00698e-10 -6.54715e-10 -6.70832e-10 -2.32634e-10 -7.73091 5.47488 -0.417314 -6.54705e-10 -6.7083e-10 -2.32631e-10 -2.90554 0.965183 -0.102902 -6.54707e-10 -6.7083e-10 -2.32632e-10 -10.2786 0.731801 -0.0259123 -6.54691e-10 -6.70823e-10 -2.32638e-10 -2.22167 -0.733487 0.20892 -2.03217e-16 0.0 -3.88251e-19 4.76853 -22.4258 3.18177 -0.239613 32.3429 0.574541 -2.52369 -13.2058 -6.58707 2.03217e-16 0.0 3.88251e-19 8.86081 -29.9545 3.67766 0.363714 43.0283 -0.851895 3.09931 -16.3366 7.70234
4.9792 82.1387 -41.3429 -7.8164 -6.018 8.986 4.1832 -4.88142 1.23819 5.22572 3.49589 0.0827107 -0.0748886 -4.23477 -0.489637 -8.59438 25.6627 0.732404 -0.0 0.0 0.0 -0.0 0.0 0.0 -1.30664e-13 -2.45009e-14 2.64787e-14 78.2893 30.9535 9.27225 -13.9981 -6.75667 25.7795 -0.178778 -11.6308 -1.65902 1.37274e-09 -8.39756e-10 3.65868e-10 2.3682e-09 -1.445e-09 6.4227e-10 1.37274e-09 -8.39751e-10 3.65853e-10 7.73091 5.47488 0.417314 1.37273e-09 -8.39753e-10 3.6587e-10 2.90554 0.965183 0.102902 1.37274e-09 -8.39754e-10 3.6587e-10 10.2786 0.731801 0.0259123 1.37273e-09 -8.39752e-10 3.65881e-10 2.22167 -0.733487 -0.20892 -1.30691e-13 -2.44991e-14 2.63762e-14 -80.3515 35.8374 -12.8739 12.3413 -5.5444 -22.43 0.0020445 -1.3329 0.187357 1.08936e-09 1.5069e-09 7.4875e-10 1.88151e-09 2.60414e-09 1.29492e-09 1.08935e-09 1.5069e-09 7.48753e-10 -7.73091 5.47488 -0.417314 1.08936e-09 1.5069e-09 7.48755e-10 -2.90554 0.965183 -0.102902 1.08936e-09 1.5069e-09 7.48753e-10 -10.2786 0.731801 -0.0259123 1.08937e-09 1.50691e-09 7.48748e-10 -2.22167 -0.733487 0.20892 -2.03217e-16 0.0 -3.88251e-19 4.73138 -22.1956 3.01926 -0.23457 32.0892 0.567947 -2.51301 -13.1129 -6.58974 2.03217e-16 0.0 3.88251e-19 8.84 -29.7554 3.67972 0.355392 42.7463 -0.840443 2.99887 -16.2538 7.44655
4.92966 82.1455 -41.3386 -7.82 -5.908 8.9172 4.02669 -4.59437 1.30113 4.90717 3.27993 0.115848 0.186108 -4.0004 -0.297127 -8.55506 25.1213 1.05767 -0.0 0.0 0.0 -0.0 0.0 0.0 -2.42738e-13 -4.55613e-16 2.18457e-14 75.7139 29.8329 8.79418 -13.6017 -6.56646 24.8395 -0.157545 -11.1168 -1.58294 3.07374e-09 -2.24711e-09 4.9735e-10 5.30573e-09 -3.87606e-09 8.82678e-10 3.07374e-09 -2.2471e-09 4.97342e-10 7.73091 5.47488 0.417314 3.07374e-09 -2.24711e-09 4.97352e-10 2.90554 0.965183 0.102902 3.07375e-09 -2.24711e-09 4.97353e-10 10.2786 0.731801 0.0259123 3.07373e-09 -2.2471e-09 4.97362e-10 2.22167 -0.733487 -0.20892 -2.42708e-13 -4.5092e-16 2.17219e-14 -77.5009 34.8659 -12.3019 12.0953 -5.46167 -21.8531 0.00290555 -1.56673 0.220242 2.75624e-09 3.63194e-09 1.73535e-09 4.76411e-09 6.278e-09 2.99947e-09 2.75623e-09 3.63193e-09 1.73535e-09 -7.73091 5.47488 -0.417314 2.75624e-09 3.63194e-09 1.73535e-09 -2.90554 0.965183 -0.102902 2.75623e-09 3.63194e-09 1.73535e-09 -10.2786 0.731801 -0.0259123 2.75626e-09 3.63195e-09 1.73535e-09 -2.22167 -0.733487 0.20892 -2.03217e-16 0.0 -3.88251e-19 4.50793 -21.3636 2.74524 -0.210477 30.8282 0.536335 -2.38692 -12.5216 -6.3862 2.03217e-16 0.0 3.88251e-19 8.4727 -28.8728 3.56471 0.318309 41.3887 -0.793548 2.75968 -15.6934 6.93702
